HIERARCHY
ROOT hip
{
  OFFSET 51.0607 88.9476 181.601
  CHANNELS 6 Xposition Yposition Zposition Zrotation Xrotation Yrotation
  JOINT abdomen
  {
    OFFSET 0 20.6881 -0.73152
    CHANNELS 3 Zrotation Xrotation Yrotation
    JOINT chest
    {
      OFFSET 0 11.7043 -0.48768
      CHANNELS 3 Zrotation Xrotation Yrotation
      JOINT neck
      {
        OFFSET 0 22.1894 -2.19456
        CHANNELS 3 Zrotation Xrotation Yrotation
        JOINT head
        {
          OFFSET -0.24384 7.07133 1.2192
          CHANNELS 3 Zrotation Xrotation Yrotation
          JOINT leftEye
          {
            OFFSET 4.14528 8.04674 8.04672
            CHANNELS 3 Zrotation Xrotation Yrotation
            End Site
            {
              OFFSET 1 0 0
            }
          }
          JOINT rightEye
          {
            OFFSET -3.6576 8.04674 8.04672
            CHANNELS 3 Zrotation Xrotation Yrotation
            End Site
            {
              OFFSET 1 0 0
            }
          }
        }
      }
      JOINT rCollar
      {
        OFFSET -2.68224 19.2634 -4.8768
        CHANNELS 3 Zrotation Xrotation Yrotation
        JOINT rShldr
        {
          OFFSET -8.77824 -1.95073 1.46304
          CHANNELS 3 Zrotation Xrotation Yrotation
          JOINT rForeArm
          {
            OFFSET -28.1742 -1.7115 0.48768
            CHANNELS 3 Zrotation Xrotation Yrotation
            JOINT rHand
            {
              OFFSET -22.5879 0.773209 7.07136
              CHANNELS 3 Zrotation Xrotation Yrotation
              JOINT rThumb1
              {
                OFFSET -1.2192 -0.487915 3.41376
                CHANNELS 3 Zrotation Xrotation Yrotation
                JOINT rThumb2
                {
                  OFFSET -3.37035 -0.52449 3.41376
                  CHANNELS 3 Zrotation Xrotation Yrotation
                  End Site
                  {
                    OFFSET -1.78271 -1.18214 1.43049
                  }
                }
              }
              JOINT rIndex1
              {
                OFFSET -7.75947 0.938293 5.60832
                CHANNELS 3 Zrotation Xrotation Yrotation
                JOINT rIndex2
                {
                  OFFSET -2.54057 -0.884171 1.56538
                  CHANNELS 3 Zrotation Xrotation Yrotation
                  End Site
                  {
                    OFFSET -1.62519 -0.234802 1.16502
                  }
                }
              }
              JOINT rMid1
              {
                OFFSET -8.24714 1.18213 3.41376
                CHANNELS 3 Zrotation Xrotation Yrotation
                JOINT rMid2
                {
                  OFFSET -3.10165 -0.590103 1.0647
                  CHANNELS 3 Zrotation Xrotation Yrotation
                  End Site
                  {
                    OFFSET -2.48547 -0.328903 0.83742
                  }
                }
              }
              JOINT rRing1
              {
                OFFSET -8.82822 0.546677 1.51678
                CHANNELS 3 Zrotation Xrotation Yrotation
                JOINT rRing2
                {
                  OFFSET -2.60934 -0.819778 -0.0198488
                  CHANNELS 3 Zrotation Xrotation Yrotation
                  End Site
                  {
                    OFFSET -2.33842 -0.294052 0.168128
                  }
                }
              }
              JOINT rPinky1
              {
                OFFSET -8.27202 -0.0477905 -0.4584
                CHANNELS 3 Zrotation Xrotation Yrotation
                JOINT rPinky2
                {
                  OFFSET -1.82734 -0.647385 -0.700984
                  CHANNELS 3 Zrotation Xrotation Yrotation
                  End Site
                  {
                    OFFSET -1.69225 -0.51767 -0.607171
                  }
                }
              }
            }
          }
        }
      }
      JOINT lCollar
      {
        OFFSET 2.68224 19.2634 -4.8768
        CHANNELS 3 Zrotation Xrotation Yrotation
        JOINT lShldr
        {
          OFFSET 8.77824 -1.95073 1.46304
          CHANNELS 3 Zrotation Xrotation Yrotation
          JOINT lForeArm
          {
            OFFSET 28.1742 -1.7115 0.48768
            CHANNELS 3 Zrotation Xrotation Yrotation
            JOINT lHand
            {
              OFFSET 22.5879 0.773209 7.07136
              CHANNELS 3 Zrotation Xrotation Yrotation
              JOINT lThumb1
              {
                OFFSET 1.2192 -0.487915 3.41376
                CHANNELS 3 Zrotation Xrotation Yrotation
                JOINT lThumb2
                {
                  OFFSET 3.37035 -0.52449 3.41376
                  CHANNELS 3 Zrotation Xrotation Yrotation
                  End Site
                  {
                    OFFSET 1.78271 -1.18214 1.43049
                  }
                }
              }
              JOINT lIndex1
              {
                OFFSET 7.75947 0.938293 5.60832
                CHANNELS 3 Zrotation Xrotation Yrotation
                JOINT lIndex2
                {
                  OFFSET 2.54057 -0.884171 1.56538
                  CHANNELS 3 Zrotation Xrotation Yrotation
                  End Site
                  {
                    OFFSET 1.62519 -0.234802 1.16502
                  }
                }
              }
              JOINT lMid1
              {
                OFFSET 8.24714 1.18213 3.41376
                CHANNELS 3 Zrotation Xrotation Yrotation
                JOINT lMid2
                {
                  OFFSET 3.10165 -0.590103 1.0647
                  CHANNELS 3 Zrotation Xrotation Yrotation
                  End Site
                  {
                    OFFSET 2.48547 -0.328903 0.83742
                  }
                }
              }
              JOINT lRing1
              {
                OFFSET 8.82822 0.546677 1.51678
                CHANNELS 3 Zrotation Xrotation Yrotation
                JOINT lRing2
                {
                  OFFSET 2.60934 -0.819778 -0.0198488
                  CHANNELS 3 Zrotation Xrotation Yrotation
                  End Site
                  {
                    OFFSET 2.33842 -0.294052 0.168128
                  }
                }
              }
              JOINT lPinky1
              {
                OFFSET 8.27202 -0.0477905 -0.4584
                CHANNELS 3 Zrotation Xrotation Yrotation
                JOINT lPinky2
                {
                  OFFSET 1.82734 -0.647385 -0.700984
                  CHANNELS 3 Zrotation Xrotation Yrotation
                  End Site
                  {
                    OFFSET 1.69225 -0.51767 -0.607171
                  }
                }
              }
            }
          }
        }
      }
    }
  }
  JOINT rButtock
  {
    OFFSET -8.77824 4.35084 1.2192
    CHANNELS 3 Zrotation Xrotation Yrotation
    JOINT rThigh
    {
      OFFSET 0 -1.70687 -2.19456
      CHANNELS 3 Zrotation Xrotation Yrotation
      JOINT rShin
      {
        OFFSET 0 -36.8199 0.73152
        CHANNELS 3 Zrotation Xrotation Yrotation
        JOINT rFoot
        {
          OFFSET 0.73152 -45.1104 -5.12064
          CHANNELS 3 Zrotation Xrotation Yrotation
          End Site
          {
            OFFSET -1.1221 -3.69964 12.103
          }
        }
      }
    }
  }
  JOINT lButtock
  {
    OFFSET 8.77824 4.35084 1.2192
    CHANNELS 3 Zrotation Xrotation Yrotation
    JOINT lThigh
    {
      OFFSET 0 -1.70687 -2.19456
      CHANNELS 3 Zrotation Xrotation Yrotation
      JOINT lShin
      {
        OFFSET 0 -36.8199 0.73152
        CHANNELS 3 Zrotation Xrotation Yrotation
        JOINT lFoot
        {
          OFFSET -0.73152 -45.1104 -5.12064
          CHANNELS 3 Zrotation Xrotation Yrotation
          End Site
          {
            OFFSET 1.1221 -3.69964 12.103
          }
        }
      }
    }
  }
}
MOTION
Frames:	5
Frame Time:	0.00833333
49.9895 81.5464 -171.262 -0.199214 -0.000989169 0.00338125 0.262209 -0.00240319 0.00752832 0.072443 -0.00388226 0.0125515 2.91706e-015 0 -2.17421e-017 8.85213e-015 3.18055e-015 -6.21202e-017 -0 0 0 -0 0 0 1.48964e-015 6.0179e-018 1.49089e-016 3.25811e-014 3.72721e-017 7.95139e-016 5.35576e-013 -1.56245e-013 1.27222e-014 6.13565e-012 1.78832e-013 -6.04305e-014 1.44694e-011 4.95748e-014 -8.5875e-014 2.49789e-011 8.26944e-014 -1.55847e-013 1.44775e-011 5.24792e-014 -9.22361e-014 7.73091 5.47488 0.417314 1.44688e-011 4.96962e-014 -8.5875e-014 2.90554 0.965183 0.102902 1.44767e-011 4.96962e-014 -8.90555e-014 10.2786 0.731801 0.0259123 1.44644e-011 5.04913e-014 -8.26944e-014 2.22167 -0.733487 -0.20892 1.39283e-015 6.21202e-018 -1.49089e-016 2.90569e-014 -1.80149e-016 -9.93923e-016 5.32047e-013 1.62606e-013 -1.27222e-014 6.13328e-012 -1.49685e-013 -2.54444e-014 1.44642e-011 3.06113e-014 -8.90555e-014 2.49848e-011 5.725e-014 -1.51076e-013 1.44604e-011 3.1408e-014 -7.95139e-014 -7.73091 5.47488 -0.417314 1.44638e-011 3.06128e-014 -8.90555e-014 -2.90554 0.965183 -0.102902 1.44611e-011 3.12092e-014 -8.82604e-014 -10.2786 0.731801 -0.0259123 1.4465e-011 3.18055e-014 -9.22361e-014 -2.22167 -0.733487 0.20892 -2.03217e-016 0 -3.88251e-019 0.660468 -3.79298 -0.0559815 -0.00363614 1.31888 -0.0297753 -0.463047 2.47431 0.102448 2.03217e-016 0 3.88251e-019 -0.260005 -2.74929 0.0308217 0.00660596 -0.571625 0.057854 0.458221 3.32107 -0.118785 
51.4545 80.709 -171.576 0.78347 1.4741 1.33523 -0.911659 -2.16398 -2.9685 1.52553 0.744432 -0.872067 -3.26412 -2.33281 -0.575717 5.06899 1.73234 -0.033397 -0 0 0 -0 0 0 3.87166e-014 7.97241e-014 -6.28889e-015 19.9568 5.50192 -3.5022 -2.47296 -0.913086 4.0611 -0.000305608 0.0932691 0.0131174 -2.09199e-010 2.16796e-010 -8.33395e-010 -3.62805e-010 3.74454e-010 -1.44005e-009 -2.09192e-010 2.16798e-010 -8.33401e-010 7.73091 5.47488 0.417314 -2.09199e-010 2.16796e-010 -8.33395e-010 2.90554 0.965183 0.102902 -2.0919e-010 2.16796e-010 -8.33398e-010 10.2786 0.731801 0.0259123 -2.09203e-010 2.16796e-010 -8.33392e-010 2.22167 -0.733487 -0.20892 3.86108e-014 7.97251e-014 -6.55873e-015 -19.0486 10.8385 -8.10885 7.94881 -4.87926 -10.734 -0.0430947 -4.61203 0.640641 -1.68123e-010 -1.94322e-009 -2.0539e-010 -2.86586e-010 -3.36298e-009 -3.5785e-010 -1.68127e-010 -1.94322e-009 -2.05383e-010 -7.73091 5.47488 -0.417314 -1.68125e-010 -1.94323e-009 -2.05392e-010 -2.90554 0.965183 -0.102902 -1.68128e-010 -1.94323e-009 -2.0539e-010 -10.2786 0.731801 -0.0259123 -1.68122e-010 -1.94322e-009 -2.05392e-010 -2.22167 -0.733487 0.20892 -2.03217e-016 0 -3.88251e-019 -0.0311696 -13.8949 -0.302202 0.0408451 9.47483 0.172928 -0.448071 2.43877 0.40966 2.03217e-016 0 3.88251e-019 -0.53008 3.55193 2.64373 -0.0185852 0.464957 -0.0754499 0.540273 4.25108 -0.616742 
51.1392 80.6524 -170.156 1.79099 3.04391 2.74633 -2.45389 -4.43849 -6.12686 3.08329 1.54005 -1.80758 -6.76346 -4.79201 -1.19087 10.4356 3.54433 -0.0749902 -0 0 0 -0 0 0 7.96466e-014 1.67515e-013 -1.09145e-014 41.8099 11.2901 -7.32491 -4.95461 -1.86699 8.37042 -0.000888099 0.145878 0.020527 -4.63285e-010 4.75323e-010 -1.73956e-009 -8.03252e-010 8.21068e-010 -3.0058e-009 -4.63278e-010 4.75323e-010 -1.73957e-009 7.73091 5.47488 0.417314 -4.63284e-010 4.75321e-010 -1.73957e-009 2.90554 0.965183 0.102902 -4.63273e-010 4.75321e-010 -1.73957e-009 10.2786 0.731801 0.0259123 -4.63288e-010 4.75322e-010 -1.73956e-009 2.22167 -0.733487 -0.20892 7.95293e-014 1.67516e-013 -1.11537e-014 -35.6289 21.5309 -17.7284 14.386 -9.45967 -22.3152 0.0250827 -9.50926 1.33516 -3.77279e-010 -4.10445e-009 -4.30913e-010 -6.43676e-010 -7.10365e-009 -7.50892e-010 -3.77283e-010 -4.10445e-009 -4.30909e-010 -7.73091 5.47488 -0.417314 -3.77282e-010 -4.10446e-009 -4.30917e-010 -2.90554 0.965183 -0.102902 -3.77286e-010 -4.10446e-009 -4.30913e-010 -10.2786 0.731801 -0.0259123 -3.77278e-010 -4.10445e-009 -4.30913e-010 -2.22167 -0.733487 0.20892 -2.03217e-016 0 -3.88251e-019 -0.930147 -24.6041 -0.608536 0.0245602 18.0535 0.40676 -0.434289 2.42342 0.72082 2.03217e-016 0 3.88251e-019 -1.51882 10.3128 5.47071 -0.0417364 1.26398 -0.217615 0.643988 5.14486 -1.18267 
50.9868 80.6151 -168.674 2.54277 4.41469 4.00951 -3.93362 -6.41705 -8.97087 4.50106 2.23894 -2.6431 -9.93388 -6.9956 -1.73867 15.213 5.19701 -0.100559 -0 0 0 -0 0 0 1.13171e-013 2.3916e-013 -1.91649e-014 61.9466 16.2541 -10.8988 -7.03344 -2.68427 12.1953 -0.00104494 0.279807 0.0393527 -6.56537e-010 6.5029e-010 -2.50001e-009 -1.13837e-009 1.1232e-009 -4.31983e-009 -6.56531e-010 6.50289e-010 -2.50002e-009 7.73091 5.47488 0.417314 -6.56536e-010 6.50287e-010 -2.50001e-009 2.90554 0.965183 0.102902 -6.56524e-010 6.50288e-010 -2.50002e-009 10.2786 0.731801 0.0259123 -6.56539e-010 6.50288e-010 -2.50001e-009 2.22167 -0.733487 -0.20892 1.13047e-013 2.39163e-013 -1.9378e-014 -47.1031 29.7213 -27.7959 18.5748 -12.581 -32.9721 0.187924 -13.8291 1.97291 -5.33298e-010 -5.82974e-009 -6.15991e-010 -9.09728e-010 -1.00891e-008 -1.07325e-009 -5.33302e-010 -5.82974e-009 -6.15989e-010 -7.73091 5.47488 -0.417314 -5.33302e-010 -5.82975e-009 -6.15997e-010 -2.90554 0.965183 -0.102902 -5.33307e-010 -5.82975e-009 -6.15992e-010 -10.2786 0.731801 -0.0259123 -5.33297e-010 -5.82974e-009 -6.15991e-010 -2.22167 -0.733487 0.20892 -2.03217e-016 0 -3.88251e-019 -1.72431 -34.0957 -0.927869 -0.0594027 25.7855 0.634412 -0.416973 2.36749 1.02404 2.03217e-016 0 3.88251e-019 -2.84406 16.0099 8.17343 -0.054488 2.53808 -0.34238 0.753137 6.10939 -1.61715 
50.779 80.6396 -167.214 2.80372 5.29724 4.89234 -4.77732 -7.723 -10.9802 5.51918 2.69804 -3.22686 -12.1811 -8.56289 -2.1071 18.5116 6.45142 -0.0855696 -0 0 0 -0 0 0 1.2818e-013 2.70444e-013 -3.6477e-014 76.2659 19.4055 -13.46 -8.38048 -3.21367 14.7974 -0.000466973 0.617036 0.0867221 -6.97707e-010 6.16358e-010 -2.89616e-009 -1.21018e-009 1.06412e-009 -5.00457e-009 -6.97701e-010 6.16357e-010 -2.89617e-009 7.73091 5.47488 0.417314 -6.97705e-010 6.16355e-010 -2.89616e-009 2.90554 0.965183 0.102902 -6.97692e-010 6.16356e-010 -2.89616e-009 10.2786 0.731801 0.0259123 -6.97708e-010 6.16356e-010 -2.89616e-009 2.22167 -0.733487 -0.20892 1.28062e-013 2.70448e-013 -3.66758e-014 -53.3815 34.431 -35.586 20.7708 -14.0131 -40.5856 0.355282 -16.7123 2.41843 -5.56476e-010 -6.46518e-009 -6.99957e-010 -9.48186e-010 -1.11863e-008 -1.21889e-009 -5.56479e-010 -6.46518e-009 -6.99957e-010 -7.73091 5.47488 -0.417314 -5.5648e-010 -6.4652e-009 -6.99964e-010 -2.90554 0.965183 -0.102902 -5.56485e-010 -6.4652e-009 -6.99959e-010 -10.2786 0.731801 -0.0259123 -5.56474e-010 -6.46518e-009 -6.99957e-010 -2.22167 -0.733487 0.20892 -2.03217e-016 0 -3.88251e-019 -1.99992 -40.5465 -1.14669 -0.168893 31.4022 0.792714 -0.39018 2.21026 1.30737 2.03217e-016 0 3.88251e-019 -3.67933 19.1943 10.2228 -0.0452383 4.99989 -0.424063 0.840474 7.2525 -1.7198 
